<svg width="173" height="57" viewBox="0 0 173 57" fill="none" xmlns="http://www.w3.org/2000/svg">
<g clip-path="url(#clip0_48_727)">
<path d="M28.3333 13.4814V1.33337L43 9.33337V28H19V9.33337L28.3333 13.4814ZM31 5.82537V17.5854L21.6667 13.4374V25.3334H40.3333V10.916L31 5.82537Z" fill="white"/>
</g>
<rect x="1.5" y="34.5" width="44" height="21" stroke="white" stroke-width="3"/>
<path d="M52.68 54V36.72H54.948L61.212 49.716L67.44 36.72H69.732V53.988H67.356V42.168L61.776 54H60.636L55.044 42.168V54H52.68ZM78.8421 54.36C77.5541 54.36 76.4221 54.08 75.4461 53.52C74.4781 52.952 73.7221 52.164 73.1781 51.156C72.6421 50.14 72.3741 48.964 72.3741 47.628C72.3741 46.212 72.6381 44.984 73.1661 43.944C73.7021 42.904 74.4461 42.1 75.3981 41.532C76.3501 40.964 77.4581 40.68 78.7221 40.68C80.0421 40.68 81.1661 40.988 82.0941 41.604C83.0221 42.212 83.7141 43.08 84.1701 44.208C84.6341 45.336 84.8181 46.676 84.7221 48.228H82.2141V47.316C82.1981 45.812 81.9101 44.7 81.3501 43.98C80.7981 43.26 79.9541 42.9 78.8181 42.9C77.5621 42.9 76.6181 43.296 75.9861 44.088C75.3541 44.88 75.0381 46.024 75.0381 47.52C75.0381 48.944 75.3541 50.048 75.9861 50.832C76.6181 51.608 77.5301 51.996 78.7221 51.996C79.5061 51.996 80.1821 51.82 80.7501 51.468C81.3261 51.108 81.7741 50.596 82.0941 49.932L84.5541 50.712C84.0501 51.872 83.2861 52.772 82.2621 53.412C81.2381 54.044 80.0981 54.36 78.8421 54.36ZM74.2221 48.228V46.272H83.4741V48.228H74.2221ZM93.1624 54.36C91.8744 54.36 90.7424 54.08 89.7664 53.52C88.7984 52.952 88.0424 52.164 87.4984 51.156C86.9624 50.14 86.6944 48.964 86.6944 47.628C86.6944 46.212 86.9584 44.984 87.4864 43.944C88.0224 42.904 88.7664 42.1 89.7184 41.532C90.6704 40.964 91.7784 40.68 93.0424 40.68C94.3624 40.68 95.4864 40.988 96.4144 41.604C97.3424 42.212 98.0344 43.08 98.4904 44.208C98.9544 45.336 99.1384 46.676 99.0424 48.228H96.5344V47.316C96.5184 45.812 96.2304 44.7 95.6704 43.98C95.1184 43.26 94.2744 42.9 93.1384 42.9C91.8824 42.9 90.9384 43.296 90.3064 44.088C89.6744 44.88 89.3584 46.024 89.3584 47.52C89.3584 48.944 89.6744 50.048 90.3064 50.832C90.9384 51.608 91.8504 51.996 93.0424 51.996C93.8264 51.996 94.5024 51.82 95.0704 51.468C95.6464 51.108 96.0944 50.596 96.4144 49.932L98.8744 50.712C98.3704 51.872 97.6064 52.772 96.5824 53.412C95.5584 54.044 94.4184 54.36 93.1624 54.36ZM88.5424 48.228V46.272H97.7944V48.228H88.5424ZM101.723 54L101.735 36.72H104.279V47.28L109.367 41.04H112.559L107.183 47.52L113.111 54H109.703L104.279 47.76V54H101.723ZM114.321 54V36.72H119.829C119.973 36.72 120.257 36.724 120.681 36.732C121.113 36.74 121.529 36.768 121.929 36.816C123.297 36.992 124.453 37.48 125.397 38.28C126.349 39.072 127.069 40.084 127.557 41.316C128.045 42.548 128.289 43.896 128.289 45.36C128.289 46.824 128.045 48.172 127.557 49.404C127.069 50.636 126.349 51.652 125.397 52.452C124.453 53.244 123.297 53.728 121.929 53.904C121.537 53.952 121.125 53.98 120.693 53.988C120.261 53.996 119.973 54 119.829 54H114.321ZM117.261 51.276H119.829C120.069 51.276 120.373 51.268 120.741 51.252C121.117 51.236 121.449 51.2 121.737 51.144C122.553 50.992 123.217 50.628 123.729 50.052C124.241 49.476 124.617 48.776 124.857 47.952C125.105 47.128 125.229 46.264 125.229 45.36C125.229 44.424 125.105 43.544 124.857 42.72C124.609 41.896 124.225 41.204 123.705 40.644C123.193 40.084 122.537 39.728 121.737 39.576C121.449 39.512 121.117 39.476 120.741 39.468C120.373 39.452 120.069 39.444 119.829 39.444H117.261V51.276ZM137.017 54.36C135.705 54.36 134.553 54.076 133.561 53.508C132.569 52.94 131.793 52.152 131.233 51.144C130.681 50.136 130.405 48.976 130.405 47.664C130.405 46.248 130.677 45.02 131.221 43.98C131.765 42.932 132.521 42.12 133.489 41.544C134.457 40.968 135.577 40.68 136.849 40.68C138.193 40.68 139.333 40.996 140.269 41.628C141.213 42.252 141.913 43.136 142.369 44.28C142.825 45.424 142.997 46.772 142.885 48.324H140.017V47.268C140.009 45.86 139.761 44.832 139.273 44.184C138.785 43.536 138.017 43.212 136.969 43.212C135.785 43.212 134.905 43.58 134.329 44.316C133.753 45.044 133.465 46.112 133.465 47.52C133.465 48.832 133.753 49.848 134.329 50.568C134.905 51.288 135.745 51.648 136.849 51.648C137.561 51.648 138.173 51.492 138.685 51.18C139.205 50.86 139.605 50.4 139.885 49.8L142.741 50.664C142.245 51.832 141.477 52.74 140.437 53.388C139.405 54.036 138.265 54.36 137.017 54.36ZM132.553 48.324V46.14H141.469V48.324H132.553ZM151.191 54.36C149.855 54.36 148.715 54.064 147.771 53.472C146.827 52.872 146.103 52.056 145.599 51.024C145.103 49.992 144.851 48.824 144.843 47.52C144.851 46.192 145.111 45.016 145.623 43.992C146.143 42.96 146.879 42.152 147.831 41.568C148.783 40.976 149.915 40.68 151.227 40.68C152.699 40.68 153.943 41.052 154.959 41.796C155.983 42.532 156.651 43.54 156.963 44.82L154.083 45.6C153.859 44.904 153.487 44.364 152.967 43.98C152.447 43.588 151.855 43.392 151.191 43.392C150.439 43.392 149.819 43.572 149.331 43.932C148.843 44.284 148.483 44.772 148.251 45.396C148.019 46.02 147.903 46.728 147.903 47.52C147.903 48.752 148.179 49.748 148.731 50.508C149.283 51.268 150.103 51.648 151.191 51.648C151.959 51.648 152.563 51.472 153.003 51.12C153.451 50.768 153.787 50.26 154.011 49.596L156.963 50.256C156.563 51.576 155.863 52.592 154.863 53.304C153.863 54.008 152.639 54.36 151.191 54.36ZM164.74 54.36C163.444 54.36 162.312 54.068 161.344 53.484C160.376 52.9 159.624 52.096 159.088 51.072C158.56 50.04 158.296 48.856 158.296 47.52C158.296 46.16 158.568 44.968 159.112 43.944C159.656 42.92 160.412 42.12 161.38 41.544C162.348 40.968 163.468 40.68 164.74 40.68C166.044 40.68 167.18 40.972 168.148 41.556C169.116 42.14 169.868 42.948 170.404 43.98C170.94 45.004 171.208 46.184 171.208 47.52C171.208 48.864 170.936 50.052 170.392 51.084C169.856 52.108 169.104 52.912 168.136 53.496C167.168 54.072 166.036 54.36 164.74 54.36ZM164.74 51.648C165.892 51.648 166.748 51.264 167.308 50.496C167.868 49.728 168.148 48.736 168.148 47.52C168.148 46.264 167.864 45.264 167.296 44.52C166.728 43.768 165.876 43.392 164.74 43.392C163.964 43.392 163.324 43.568 162.82 43.92C162.324 44.264 161.956 44.748 161.716 45.372C161.476 45.988 161.356 46.704 161.356 47.52C161.356 48.776 161.64 49.78 162.208 50.532C162.784 51.276 163.628 51.648 164.74 51.648Z" fill="white"/>
<defs>
<clipPath id="clip0_48_727">
<rect width="32" height="32" fill="white" transform="translate(15)"/>
</clipPath>
</defs>
</svg>
